<?xml version="1.0" encoding="utf-8"?>
<!-- Generator: Adobe Illustrator 16.0.0, SVG Export Plug-In . SVG Version: 6.00 Build 0)  -->
<!DOCTYPE svg PUBLIC "-//W3C//DTD SVG 1.1//EN" "http://www.w3.org/Graphics/SVG/1.1/DTD/svg11.dtd">
<svg version="1.1" id="Layer_1" xmlns="http://www.w3.org/2000/svg" xmlns:xlink="http://www.w3.org/1999/xlink" x="0px" y="0px"
	 width="63px" height="79.696px" viewBox="116.14 391.112 63 79.696" enable-background="new 116.14 391.112 63 79.696"
	 xml:space="preserve">
<path fill="#F3981D" d="M170.703,426.474c0.626-1.244,0.408-2.584,0.842-3.936c0.722-2.249,1.857-7.762,1.171-10.042
	c-0.288-0.952-1.042,1.119-2.33,1.46c-1.043,0.277-1.88,2.104-2.32,2.975c-0.596,1.178-1.739,1.924-2.39,3.032
	c-1.118,1.903-0.098,5.534,0.65,7.391c0.461,1.145,1.023,1.82,2.024,2.477c0.75,0.49,1.18,1.07,1.677,0.125
	C170.541,428.984,170.16,427.552,170.703,426.474z"/>
<path fill="#F3981D" d="M124.389,448.574c-0.288,0.701-1.449,1.947-2.167,2.383c0.382-0.434,0.534-0.281,0.965-0.436
	c-0.041,0.461-0.444,1.039-0.709,1.348c0.662-0.428,1.118-1.141,1.609-1.758c-0.125,0.314-0.106,0.553-0.301,0.885
	c0.189-0.133,0.626-0.285,0.879-0.492c0.027,1.238-1.264,2.438-1.595,3.658c0.405-0.324,0.799-0.689,1.157-1.068
	c0.001,0.072,0.012,0.143,0.031,0.211c0.207-0.064,0.293-0.291,0.484-0.365c0.019,0.244,0.033,0.381-0.005,0.648
	c0.116-0.111,0.241-0.211,0.374-0.301c0.144,0.057,0.174,0.164,0.093,0.316c0.126-0.055,0.195-0.162,0.331-0.217
	c-0.204,0.33-0.303,0.668-0.578,1c0.371-0.275,0.673-0.373,0.986-0.785c-0.172,0.551-0.506,1.139-0.533,1.609
	c0.204-0.205,0.337-0.447,0.402-0.729c-0.223,0.289-0.453,0.646-0.645,0.971c0.188-0.148,0.401-0.275,0.585-0.443
	c-0.325,0.318-0.578,0.771-0.897,1.107c0.208-0.078,0.628-0.107,0.826-0.18c-0.056,0.156-0.086,0.316-0.088,0.48
	c0.226-0.055,0.39-0.227,0.588-0.34c-0.07,0.145-0.149,0.285-0.235,0.424c0.354-0.275,0.72-0.488,1.027-0.918
	c-0.266,0.441-0.363,1.004-0.219,1.414c0.206-0.215,0.566-0.379,0.764-0.615c0.004,0.518-0.128,1.021-0.381,1.475
	c0.324-0.24,0.823-0.377,1.15-0.668c-0.197,0.832-0.529,1.623-0.733,2.457c0.122,0.043,0.228,0.008,0.32-0.109
	c0.121,0.121,0.141,0.264,0.059,0.424c0.71-0.682,1.391-1.387,2.159-2.008c-0.485,0.891-0.979,1.781-1.354,2.725
	c1.014-0.271,2.012-1.994,2.917-2.674c-0.394,0.938-0.984,1.861-1.188,2.865c0.619-0.664,1.056-1.467,1.668-2.143
	c-0.396,1.193-1.067,2.344-1.323,3.609c0.125-0.148,0.446-0.424,0.609-0.689c-0.191,0.648-0.556,1.475-0.296,1.984
	c0.232-0.369,0.66-0.73,0.844-1.137c-0.119,0.391-0.126,0.863-0.253,1.258c0.416-0.592,0.897-1.197,1.456-1.658
	c0.072,0.721-0.178,1.455-0.658,1.928c0.405-0.77,0.854-1.615,1.455-2.232c-0.167,0.693-0.448,1.434-0.494,2.104
	c0.241-0.592,0.669-0.963,1.212-0.93c-0.003,0.863-0.297,1.664-0.267,2.521c0.533-0.352,0.828-0.906,1.286-1.344
	c0.025,0.564-0.075,1.135-0.11,1.719c2.334-2.277,1.281-5.477-0.256-7.684c-1.419-2.037-2.076-4.582-4.006-6.283
	c-1.185-1.045-2.934-1.965-4.3-2.719c-0.803-0.443-1.371-0.998-2.498-0.305"/>
<path fill="#F3981D" d="M123.268,441.923c-0.5-0.854-5.007,1.043-5.359,1.938c0.998-0.451,1.955-0.857,3.097-0.732
	c-0.888,0.404-2.028,1.443-2.293,2.355c0.649-0.389,1.226-0.785,1.961-1.018c-0.691,0.611-1.676,1.293-2.128,2.104
	c0.715-0.092,1.388-0.537,1.888-1.047c-0.26,0.371-0.681,0.664-0.755,1.105c0.45-0.018,0.874-0.281,1.311-0.41
	c-0.559,0.365-1.693,0.973-1.735,1.709c0.5-0.17,0.96-0.436,1.406-0.717c-0.417,0.219-0.811,0.598-1.034,1.006
	c0.466-0.117,0.894-0.34,1.317-0.566c-0.331,0.277-0.667,0.6-0.878,0.982c0.263-0.008,0.539-0.18,0.809-0.291
	c-0.15,0.131-0.222,0.303-0.341,0.441c0.097-0.047,0.195-0.062,0.309-0.131c-0.011,0.26-0.184,0.557-0.244,0.773
	c0.19-0.227,0.413-0.426,0.656-0.584c-0.02,0.879-1.082,1.496-1.085,2.338c0.689-0.332,1.239-1.248,2.011-1.334
	c-0.489,0.783-1.668,1.289-1.794,2.309c0.774,0.203,1.623-0.605,2.351-0.814c-0.448,0.473-0.86,1.002-0.984,1.66
	c1.034-0.035,2.018-1.514,2.921-1.998c-0.496,0.592-0.954,1.225-1.345,1.891c0.261-0.359,0.557-0.732,0.91-0.975
	c-0.027,0.385-0.154,0.699-0.004,1.074c0.366-0.15,0.631-0.412,0.981-0.582c0.111,0.645-0.296,1.229-0.472,1.82
	c0.368-0.262,0.654-0.607,1.048-0.836c0.445,0.326-0.1,1.057-0.092,1.447c0.45-0.172,0.753,0.193,1.055,0.33
	c-0.041,0.082-0.081,0.186-0.126,0.258c1.699-0.861,1.72-3.398,2.778-4.789c1.084-1.422,2.658-1.76,2.494-3.975
	c-0.158-2.139-2.237-4.143-4.062-5.055c-0.883-0.441-3.388-1.27-4.122-0.139"/>
<path fill="#F3981D" d="M124.427,432.417c-1.926,0.551-4.028,1.008-5.555,2.398c1.087-0.299,2.379-0.85,3.511-0.744
	c-0.649,0.412-1.307,0.781-1.756,1.42c0.617,0.039,1.335-0.344,1.981-0.42c-0.953,1.137-3.083,1.016-3.736,2.426
	c1.191-0.236,2.308-0.762,3.528-0.889c-0.947,0.863-2.443,1.52-2.986,2.723c1.073-0.283,2.063-1.238,3.209-1.234
	c-0.815,1.016-3.495,1.811-3.497,3.32c0.86-0.479,1.735-1.117,2.713-1.312c-0.931,0.445-1.839,0.939-2.775,1.385
	c-0.519,0.246-1.171,0.492-1.42,1.027c0.853-0.105,1.5-0.779,2.311-1.02c-0.877,1.033-2.123,1.629-2.983,2.684
	c0.505-0.107,3.314-1.811,3.478-1.508c-0.892,0.707-1.975,1.348-2.699,2.232c0.159-0.053,0.32-0.07,0.485-0.145
	c-0.413,0.363-0.901,0.689-1.164,1.191c0.688-0.338,1.389-0.656,2.141-0.822c-0.382,0.717-1.252,1.172-1.686,1.916
	c0.506,0.002,0.985-0.312,1.458-0.529c-0.321,0.717-1.427,1.287-1.938,1.924c0.702-0.219,1.301-0.725,2.01-0.943
	c-0.413,0.607-1.007,1.055-1.426,1.648c1.745-0.914,3.339-2.08,5.069-3.02c1.647-0.895,2.339-1.928,3.006-3.744
	c0.945-2.568,1.029-5.18,0.592-7.854c-0.339-2.08-1.832-2.258-3.74-2.561"/>
<path fill="#F3981D" d="M171.835,432.285c1.764,0.898,3.409,2.229,4.86,3.414c-0.946-0.078-3.019-0.143-3.605-0.939
	c0.682-0.111,1.762,0.289,1.928,1.025c-0.397-0.182-0.783-0.525-1.122-0.818c0.69,0.428,2.569,1.488,2.806,2.383
	c-0.58-0.049-1.549-0.521-1.86-1.078c1.107,0.682,2.25,1.783,2.973,2.875c-0.797-0.238-2.167-1.064-2.541-1.867
	c0.703,0.869,1.312,1.811,2.018,2.676c-0.77-0.297-1.671-0.992-2.208-1.637c0.692,0.551,1.672,1.559,1.696,2.512
	c-0.589-0.404-1.28-1.156-1.503-1.85c0.784,0.637,1.661,2.346,2.004,3.342c-0.585-0.455-1.25-1.172-1.811-1.746
	c0.496,0.812,1.201,1.5,1.661,2.336c-0.964-0.648-1.946-1.295-2.938-1.902c0.96,0.812,2.01,1.547,2.907,2.428
	c-0.7-0.188-1.308-0.645-2.012-0.842c0.642,0.773,1.608,1.248,2.312,1.971c-0.969,0.137-1.922-1.061-2.846-0.893
	c0.158,0.227,0.344,0.447,0.568,0.576c-0.825,0.021-1.626-0.434-2.424-0.607c0.62,0.602,1.384,1.135,2.104,1.615
	c-0.938-0.346-1.847-0.754-2.743-1.191c0.322,0.301,1.221,0.67,1.228,1.168c-1.12,0.006-2.339-0.506-3.356-0.936
	c0.678,0.285,1.261,0.842,1.877,1.24c-2.738-0.873-2.969-2.959-2.871-5.562c0.049-1.314,0.084-2.246,1.024-3.199
	c0.416-0.424,0.035-3.518,0.703-3.396"/>
<path fill="#F3981D" d="M161.972,466.656c-0.185-0.932-0.901-1.732-1.057-2.695c0.476,0.549,0.884,1.219,1.268,1.799
	c0.023-0.789-0.225-1.629-0.44-2.379c0.45,0.77,1.026,1.438,1.531,2.164c0.072-0.625-0.499-1.469-0.606-2.152
	c0.394,0.201,0.626,0.732,0.902,1.061c-0.116-0.564-0.355-1.109-0.588-1.637c0.634,0.432,0.975,1.346,1.27,2.059
	c0.141-1.014-0.33-2.172-0.574-3.146c0.307,0.23,0.461,0.645,0.661,0.975c0.128-0.646-0.004-1.326-0.058-1.975
	c0.273,0.277,0.511,0.59,0.793,0.855c-0.05-0.311-0.147-0.613-0.288-0.895c0.091,0.213,0.227,0.395,0.345,0.592
	c-0.035-0.252-0.035-0.508,0-0.758c0.168,0.24,0.338,0.48,0.509,0.719c-0.133-0.926-0.438-1.83-0.67-2.736
	c0.583,0.824,1.036,1.738,1.712,2.496c0.222-0.658-0.356-1.9-0.53-2.484c0.52-0.174,1.189,1.223,1.581,1.59
	c-0.033-0.494-0.174-0.967-0.237-1.457c0.298,0.27,0.511,0.633,0.701,0.988c-0.083-0.656-0.353-1.271-0.449-1.924
	c-0.038-0.254-0.325-0.963,0.053-0.557c0.07-0.658-0.262-1.402-0.31-2.07c0.239,0.283,0.332,0.672,0.497,1.008
	c0.291-0.764,0.097-1.74-0.066-2.516c0.25,0.285,0.402,0.652,0.643,0.936c0.071-0.332,0.008-0.668,0.153-0.971
	c0.364,0.172,0.549,0.553,0.672,0.938c-0.027-0.352-0.03-0.705-0.022-1.057c0.355,0.172,0.592,0.609,0.622,1.025
	c-0.059-0.559-0.13-1.143-0.089-1.703c0.118,0.184,0.223,0.293,0.286,0.574c0.052-0.488-0.012-0.988,0.025-1.477
	c0.349,0.291,0.484,0.715,0.73,1.092c0.312-0.576,0.069-1.756,0.106-2.404c0.569,0.244,0.472,1.389,0.799,1.895
	c0.146-0.643-0.37-1.291-0.151-1.918c0.199,0.266,0.374,0.553,0.538,0.84c-0.028-0.469-0.14-0.951-0.073-1.418
	c0.54,0.486,0.614,1.322,1.041,1.881c-0.121-1.006-0.976-2.686-0.675-3.59c0.555,1.117,0.945,2.283,1.44,3.422
	c0.068-1.715-0.643-3.268-1.032-4.84c0.306,0.572,0.604,1.146,0.879,1.734c0.271-0.602-0.118-1.625-0.106-2.287
	c0.517,0.273,0.834,0.828,1.175,1.285c-0.089-0.473-0.311-0.904-0.451-1.365c0.544,0.572,0.877,1.309,1.501,1.812
	c0.013-0.74-0.441-1.527-0.742-2.223c0.451-0.064,1.668,2.039,2.232,2.387c-0.106-0.309-0.903-1.193-0.563-1.434
	c0.397,0.266,0.722,0.713,1.12,0.914c-0.164-0.396-1.696-3.004-1.113-3.145c0.201,0.201,0.379,0.43,0.542,0.664
	c-0.273-0.799-1.188-2.752-2.096-2.93c-0.076,0.119-0.142,0.244-0.199,0.375c-1.202,0.271-4.287-1.609-5.145-0.746
	c-2.208,2.229-6.216,3.654-7.671,6.477c-1.705,3.305-3.713,7.229-5.579,10.461c-0.982,1.699,2.813,6.084,2.882,8.146
	c0.512,0.111,1.237-0.68,1.253-1.174"/>
<path fill="#F3981D" d="M122.5,440.4c0,0-0.904-8.531,2.682-14.137c3.586-5.602,4.213-7.877,6.679-10.567
	c2.466-2.69,6.566-8.2,8.801-8.336c2.235-0.136,13.219-5.515,13.219,0.089s6.051,10.311,9.189,12.104
	c3.138,1.793,9.639,10.535,8.966,14.57c-0.673,4.035-6.724,4.482-14.345,2.691c-7.621-1.795-18.38-2.916-22.19,0.223
	C131.69,440.175,123.397,441.97,122.5,440.4z"/>
<path fill="#ECE9E2" d="M164.203,453.494c-0.25,0.51,1.077,3.934,1.212,5.055c-0.536-1.078-0.944-2.23-1.429-3.336
	c-0.204,0.264,0.371,1.629,0.38,2.041c-0.368-0.316-0.61-0.738-0.904-1.123c-0.038,0.676,0.196,1.361,0.366,2.012
	c-0.554-0.768-0.78-1.727-1.354-2.492c-0.012,1.145,0.789,2.287,0.912,3.439c-0.417-0.648-0.775-1.27-1.258-1.879
	c-0.598,0.203,0.174,1.898,0.311,2.352c-0.157-0.414-0.393-0.822-0.681-1.162c0.131,0.602,0.398,1.16,0.557,1.756
	c-0.271-0.287-0.454-0.75-0.695-1.088c0.041,0.389,0.188,0.729,0.181,1.125c-0.331-0.367-0.55-0.805-0.818-1.219
	c0.08,0.428,0.245,0.832,0.255,1.271c-0.583-0.033-1.028-0.643-1.478-0.961c0.045,0.457,0.229,0.883,0.417,1.305
	c-0.065-0.105-0.14-0.207-0.224-0.301c0.132,0.447,0.324,0.873,0.499,1.309c-0.07-0.121-0.145-0.236-0.215-0.357
	c0.401,0.785,0.804,1.568,1.128,2.391c-0.305-0.631-0.68-1.059-1.19-1.541c-0.496,0.283-0.24,0.992-0.056,1.471
	c-0.557-0.465-0.961-1.055-1.583-1.455c-0.104,0.625,0.562,1.398,0.678,2.031c-0.09-0.25-0.248-0.266-0.411-0.447
	c-0.711,0.758,0.848,1.998,0.309,2.75c-0.246-0.129-0.495-0.25-0.748-0.363c-0.167,0.723,0.193,1.51,0.297,2.227
	c-0.4-0.484-0.748-1.039-1.34-1.311c0.089,0.672,0.539,1.367,0.851,1.955c-0.242-0.398-0.88-1.459-1.458-1.182
	c0.297,0.826,0.916,1.539,1.085,2.406c-0.35-0.666-1.239-1.793-1.873-2.061c0.338,0.551,0.824,1.166,0.999,1.803
	c-1.127-0.689-1.759-1.9-3.099-2.338c0.052,1.131,1.208,2.299,1.791,3.232c-0.371-0.637-0.98-1.225-1.529-1.711
	c-0.114,0.152-0.088,0.311,0.076,0.469c0.277-0.432-1.871-1.891-2.161-2.082c-0.264,0.604,1.176,1.912,1.566,2.371
	c-0.837-2.113-3.485-3.385-5.415-4.236c-0.305,0.559,0.921,1.764,1.256,2.234c-0.965-0.807-1.98-1.49-3.089-2.08
	c0.258,0.367,1.183,1.391,1.667,1.33c-0.028-1.352-1.605-2.578-2.588-3.35c0.213,0.309,0.433,0.611,0.659,0.908
	c-0.1-1.297-2.094-2.732-2.783-3.795c0.46,0.703,0.871,1.396,1.407,2.047c-1.066-0.896-2.114-1.822-3.085-2.82
	c0.42-0.244,1.74,1.402,2.068,1.791c-0.86-0.967-3.617-3.271-2.554-4.799c-0.525-5.432,7.52-6.967,11.333-7.74
	c3.91-0.793,8.17-1.498,12.175-1.154"/>
<path fill="#F0EEEB" d="M141.824,466.457c-0.035,1.029,0.864,2.395,1.781,2.9c-0.696-0.494-0.719-1.301-0.689-2.076
	c0.29,1.012,1.244,2.336,2.37,2.352c-0.517-0.752-1.569-1.357-1.477-2.357c0.288,1.021,1.431,1.633,2.245,2.189
	c-0.623-0.523-1.444-1.6-1.454-2.465c0.53,0.477,0.904,1.324,1.625,1.678c0.518,0.256,1.217,0.318,1.779,0.523
	c-0.609,0.064-1.022-0.816-1.251-1.311c0.826,0.891,1.346,0.994,2.448,1.246c-0.326-0.303-0.582-0.717-0.596-1.18
	c0.469,0.568,1.405,2.443,2.17,2.465c0.19-1.062-0.687-2.049-1.096-2.965c0.333,0.775,1.604,1.873,2.505,2
	c-0.621-0.666-1.608-1.172-1.401-2.225c1.279,0.586,2.438,1.59,3.787,2.01c-0.429-0.98-1.009-1.918-1.47-2.9
	c0.371,0.576,0.996,0.936,1.315,1.521c-1.909-2.766-1.437-5.623-1.935-8.787c-0.8-5.086-5.237-7.992-10.271-7.631
	c-4.841,0.348-7.89,3.898-5.632,8.527c1.388,2.846,3.79,5.031,5.345,7.777"/>
<path fill="#F3981D" d="M134.038,458.697c-0.119,0.467-0.369,1.012-0.495,1.518c-0.132,0.527-0.24,1.252-0.6,1.68
	c0.547-0.686,1.289-1.361,1.604-2.195c-0.324,0.645-0.634,1.51-0.833,2.207c0.414-0.684,0.979-1.256,1.378-1.951
	c-0.181,0.789-0.611,1.504-0.756,2.309c0.245-0.303,0.451-0.674,0.72-0.975c0.039,0.525-0.582,1.453-0.815,1.93
	c0.284-0.514,0.679-0.998,1.088-1.418c0.053,0.424-0.602,1-0.7,1.455c0.383-0.303,0.75-0.91,1.258-1.121
	c-0.16,0.355-0.351,0.707-0.4,1.1c0.38-0.24,0.65-0.834,1.045-1.158c-0.008,0.186-0.014,0.375-0.018,0.561
	c0.203-0.176,0.387-0.408,0.578-0.613c-0.025,0.432-0.162,0.85-0.272,1.266c0.326-0.199,0.565-0.578,0.833-0.881
	c0.046,0.689-0.538,1.311-0.684,1.953c0.274-0.297,0.549-0.625,0.853-0.885c0.083,0.613-0.419,0.973-0.596,1.488
	c0.553-0.389,1.047-0.871,1.581-1.277c0.13,0.605-0.547,1.318-0.691,1.896c0.548-0.445,0.975-1.207,1.699-1.428
	c0.107,0.627-0.545,1.449-0.986,1.83c0.425-0.537,0.805-1.236,1.408-1.594c-0.328,0.656-1.067,1.359-1.183,2.092
	c0.426-0.219,0.709-0.643,1.108-0.898c0.02,0.062,0.039,0.047,0.048,0.141c0.413-0.412,0.728-0.91,1.188-1.279
	c-0.026,0.232-0.091,0.455-0.074,0.688c0.53-0.258,0.776-1.076,1.26-1.439c-0.042,0.145-0.048,0.336-0.1,0.475
	c0.032-0.041,0.058-0.084,0.081-0.127c-0.042,0.178-0.061,0.365-0.055,0.547c0.657-0.688,2.045-4.838,1.655-5.303
	c-3.325-3.959-5.49-6.068-2.889-2.49c0.858,1.18-3.387,0.707-5.034,1.008c-0.822,0.148-1.326,0.67-1.955,1.146"/>
<path fill="#F3981D" d="M173.035,406.126c0.374,1.082,0.604,2.294,0.682,3.434c0.144,2.074-0.254,4.316-0.974,6.263
	c-0.315,0.851-0.748,1.684-1.468,2.261c-0.707,0.567-1.615,0.551-2.326,1.002c-1.043,0.662-1.955,2.422-3.322,2.362
	c-0.949-0.042-1.853-0.886-2.561-1.432c-1.074-0.828-2.126-1.688-3.265-2.426c-0.69-0.447-1.401-0.833-2.167-1.13
	c-0.33-0.128-0.667-0.219-0.937-0.46c-1.839-1.646,0.618-4.119,1.551-5.092c0.673-0.702,1.499-1.149,2.166-1.832
	c0.813-0.833,2.79-2.275,3.664-3.037c1.415-1.237,2.298-1.916,3.508-2.73c2.291-1.544,3.486-2.541,4.655,0.386
	C172.542,404.446,172.771,405.362,173.035,406.126z"/>
<path fill="#FFFFFF" d="M168.798,405.336c0.727-0.017,1.338,0.574,1.677,1.168c-0.231-0.137-0.52-0.206-0.73-0.352
	c0.238,0.234,0.323,0.598,0.397,0.842c-0.126,0.047-0.253,0.056-0.383,0.023c0.152,0.119,0.347,0.414,0.514,0.527
	c-0.177,0.039-0.087,0.026-0.294-0.001c0.25,0.354,0.574,0.648,0.907,0.928c-0.241,0.111-0.167,0.213-0.307,0.337
	c-0.103,0.016-0.206,0.024-0.31,0.028c0.126,0.145,0.125,0.427,0.193,0.546c-0.096,0.048-0.24,0.127-0.339,0.161
	c0.189,0.254,0.048,0.187,0.109,0.479c0.249,0.271,0.104,0.491-0.329,0.61c-0.355,0.543,0.296,1.315-0.586,1.602
	c0.148,0.013,0.394,0.147,0.514,0.161c-0.241,0.228-0.549,0.439-0.858,0.597c0.125-0.001,0.428,0.121,0.631,0.117
	c-0.224,0.47-0.742,0.751-1.261,0.806c0.27,0.002,0.359,0.14,0.552,0.2c-0.229,0.158-0.377,0.374-0.668,0.476
	c0.417,0.007,0.868-0.061,1.224,0.107c-0.111,0.366-0.373,0.648-0.729,0.787c0.361-0.059,0.704,0.041,0.931,0.302
	c-0.194,0.353-0.547,0.533-0.961,0.515c0.212-0.048,0.445-0.001,0.658-0.014c-0.217,0.598-0.918,0.956-1.421,1.273
	c0.237,0.108,0.474,0.434,0.754,0.516c-0.266,0.17-0.543,0.355-0.859,0.423c0.202,0.032,0.385,0.16,0.47,0.189
	c-0.562,0.229-1.28,0.087-1.884,0.103c0.292,0.224,0.615,0.423,0.901,0.663c-0.772,0.119-3.218-1.647-2.782-2.422
	c-0.007,0.884-1.569-0.735-1.566-1.301c0.286,0.092,0.461,0.06,0.716,0.327c-0.625-0.618-1.704-3.659-0.265-4.017
	c0.088,0.025,0.131,0.082,0.129,0.168c-0.059,0.094-0.146,0.136-0.262,0.127c-0.221-0.706,1.143-4.321,2.134-4.214
	c-0.07,0.41-0.335,0.748-0.703,0.944c0.693-1.125,1.537-2.449,2.608-3.253c-0.233-0.121,0.73-0.522,1.202,0.092
	c0.022-0.313,0.208-0.098,0.476-0.175"/>
<path fill="#CBC6BC" d="M124.904,439.937c-1.75,0.438-2.368,2.131-3.55,3.322c1.082-0.725,2.038-1.877,3.355-2.104
	c-1.364,1.223-3.047,1.912-3.66,3.811c0.771-0.811,1.882-1.34,2.875-1.822c-0.928,0.842-2.054,2.057-2.146,3.34
	c0.961-0.98,2.221-2.342,3.68-2.379c-1.19,0.957-2.981,3.062-2.966,4.521c0.791-1.168,2.25-1.643,3.438-2.377
	c-0.931,1.064-1.876,2.578-2.888,3.465c0.969-0.639,2.199-1.143,3.146-1.854c-1.159,0.738-2.344,2.023-2.482,3.436
	c1.241-0.67,2.558-1.107,3.957-1.393c-0.405,1.299-1.789,2.439-2.388,3.795c0.854-0.545,3.033-2.168,4.058-1.49
	c-0.46,0.799-1.192,1.412-1.707,2.174c0.696-0.301,1.346-0.666,2.102-0.787c-0.33,0.547-0.667,1.092-1.014,1.633
	c0.352-0.244,0.858-0.271,1.212-0.447c-0.528,0.797-1.36,1.35-1.985,2.098c0.928-0.217,1.899-0.73,2.809-0.352
	c-0.246,0.229-0.429,0.729-0.629,0.934c0.274-0.057,0.508,0.004,0.766-0.021c-0.253,0.535-0.663,1.021-1.158,1.383
	c0.517-0.299,1.016-0.629,1.537-0.912c-0.064,0.113-0.134,0.219-0.211,0.324c0.826-0.576,1.897-1.279,2.888-1.289
	c-0.203,0.646-0.566,1.217-0.825,1.842c0.486,0.043,0.221,0.117,0.516,0.264c0.194-0.033,0.358-0.086,0.551-0.117
	c0.106,0.062,0.167,0.15,0.182,0.273c-0.231,0.195-0.626,0.662-0.814,0.775c0.611-0.666,1.687-1.258,2.32-1.061
	c1.25-3.449,4.523-8.836,2.832-12.5c-1.585-3.432-2.966-5.043-6.228-6.664c-1.58-0.785-2.84-1.379-4.625-0.934
	c-0.924,0.23-1.664,0.857-2.646,0.965"/>
<path fill="#E55F11" d="M138.89,419.93c-0.507,0.06-1.006,0.001-1.481-0.172c0.486,0.185,0.621,0.484,0.885,0.71
	c-0.27-0.028-0.635,0.061-0.958-0.005c0.176,0.165,0.362,0.317,0.556,0.459c-0.148,0.042-0.374,0.065-0.587,0.064
	c0.173,0.194,0.375,0.428,0.481,0.667c-0.233-0.016-0.599-0.224-0.8-0.333c0,0.012-0.112,0.264,0.037,0.258
	c-0.303-0.534-0.749-0.798-1.263-0.573c0.027,0.76,0.345,1.465,0.914,1.965c-0.303-0.557-0.703-1.059-1.074-1.576
	c-0.065,0.828,0.125,1.679,0.654,2.33c-0.865-0.812-1.809-1.645-2.901-2.029c-0.067,0.543-0.022,1.107,0.132,1.629
	c-0.052-0.197-0.139-0.439-0.21-0.658c-0.023,0.438,0.075,1.043,0.189,1.502c-0.188-0.055-0.339-0.006-0.454,0.148
	c0.243,0.285,0.315,0.494,0.658,0.691c-0.44-0.484-0.938-0.926-1.481-1.293c0.129,0.178,0.334,0.684,0.554,0.945
	c-0.609-0.119-1.159-0.398-1.754-0.551c0.107,0.104,0.291,0.506,0.588,0.729c-0.803-0.039-1.655,0.102-2.163,0.754
	c0.455-0.008,0.92,0.199,1.359,0.225c-0.37,0.16-0.718,0.518-1.104,0.668c0.57,0.256,1.21,0.199,1.847,0.166
	c-0.97-0.031-1.99,0.334-2.78,0.893c0.456,0.199,1.097,0.246,1.64,0.135c-1.026,0.307-2.397,0.582-3.164,1.398
	c0.516,0.158,1.073,0.141,1.637,0.111c-1.194-0.025-2.514,0.395-3.439,1.172c0.533,0.164,1.14,0.08,1.415-0.225
	c-0.987-0.107-2.176,0.123-2.8,0.814c0.304,0.062,0.598,0.033,0.882-0.084c-0.083,0.055-0.292,0.193-0.375,0.246
	c0.218-0.016,0.602-0.006,0.811,0.045c-0.509,0.746-1.281,1.027-2.174,1.148c0.092,0.088,0.312,0.145,0.464,0.193
	c-0.033,0.105-0.16,0.459-0.13,0.564c2.832,0.076,4.438-1.879,6.616-3.459c2.548-1.852,5.547-3.537,7.675-5.893
	c0.7-0.773,2.17-2.195,1.846-3.337"/>
<path fill="#E55F11" d="M156.625,419.854c0.508,0.06,1.006,0.002,1.481-0.172c-0.486,0.185-0.621,0.484-0.885,0.71
	c0.27-0.029,0.636,0.061,0.958-0.005c-0.176,0.165-0.362,0.317-0.557,0.459c0.148,0.042,0.375,0.065,0.587,0.064
	c-0.173,0.196-0.375,0.428-0.48,0.667c0.233-0.016,0.598-0.224,0.8-0.333c0,0.012,0.112,0.264-0.037,0.258
	c0.303-0.534,0.748-0.798,1.263-0.573c-0.028,0.76-0.346,1.467-0.915,1.967c0.303-0.559,0.703-1.061,1.075-1.577
	c0.064,0.829-0.125,1.678-0.654,2.329c0.865-0.814,1.808-1.645,2.901-2.029c0.067,0.545,0.022,1.109-0.132,1.631
	c0.052-0.197,0.139-0.439,0.209-0.66c0.022,0.439-0.074,1.043-0.19,1.504c0.188-0.057,0.34-0.006,0.455,0.146
	c-0.243,0.287-0.316,0.496-0.658,0.693c0.44-0.484,0.937-0.928,1.48-1.293c-0.128,0.178-0.333,0.684-0.553,0.945
	c0.608-0.121,1.158-0.398,1.754-0.553c-0.107,0.104-0.291,0.506-0.588,0.729c0.803-0.039,1.655,0.104,2.163,0.754
	c-0.455-0.008-0.92,0.199-1.36,0.225c0.371,0.162,0.719,0.52,1.104,0.668c-0.569,0.256-1.21,0.201-1.847,0.166
	c0.97-0.031,1.99,0.334,2.78,0.893c-0.456,0.199-1.096,0.244-1.64,0.137c1.027,0.305,2.398,0.58,3.165,1.396
	c-0.516,0.158-1.074,0.141-1.638,0.113c1.195-0.027,2.515,0.393,3.44,1.17c-0.533,0.166-1.14,0.08-1.416-0.223
	c0.988-0.109,2.177,0.121,2.8,0.812c-0.304,0.062-0.597,0.033-0.881-0.086c0.083,0.055,0.292,0.197,0.375,0.248
	c-0.219-0.014-0.602-0.004-0.812,0.047c0.508,0.744,1.281,1.027,2.175,1.148c-0.092,0.086-0.313,0.145-0.464,0.191
	c0.034,0.105,0.16,0.459,0.129,0.566c-2.831,0.076-4.438-1.879-6.615-3.461c-2.549-1.852-5.548-3.535-7.676-5.893
	c-0.699-0.773-2.17-2.193-1.845-3.336"/>
<path fill="#CBC6BC" d="M169.99,439.49c1.75,0.438,2.368,2.131,3.551,3.322c-1.082-0.727-2.038-1.879-3.354-2.104
	c1.363,1.223,3.046,1.91,3.659,3.811c-0.77-0.812-1.882-1.342-2.875-1.822c0.928,0.842,2.054,2.057,2.146,3.34
	c-0.962-0.98-2.221-2.342-3.68-2.379c1.19,0.957,2.981,3.061,2.966,4.521c-0.791-1.168-2.25-1.643-3.437-2.379
	c0.931,1.066,1.875,2.578,2.888,3.465c-0.969-0.639-2.198-1.141-3.146-1.854c1.158,0.74,2.344,2.023,2.481,3.436
	c-1.241-0.67-2.558-1.107-3.957-1.391c0.405,1.299,1.789,2.439,2.388,3.793c-0.854-0.543-3.033-2.166-4.058-1.49
	c0.46,0.801,1.192,1.412,1.708,2.174c-0.697-0.299-1.347-0.664-2.103-0.785c0.33,0.549,0.667,1.092,1.014,1.633
	c-0.352-0.246-0.858-0.271-1.211-0.449c0.528,0.799,1.359,1.35,1.984,2.098c-0.929-0.217-1.898-0.729-2.808-0.352
	c0.245,0.23,0.429,0.729,0.628,0.934c-0.274-0.057-0.509,0.004-0.766-0.02c0.254,0.535,0.663,1.02,1.157,1.383
	c-0.516-0.301-1.015-0.629-1.536-0.912c0.063,0.111,0.134,0.219,0.21,0.322c-0.826-0.574-1.896-1.279-2.889-1.289
	c0.203,0.648,0.566,1.219,0.825,1.844c-0.485,0.041-0.221,0.117-0.516,0.264c-0.194-0.033-0.357-0.088-0.551-0.117
	c-0.106,0.061-0.167,0.152-0.182,0.273c0.231,0.193,0.626,0.662,0.814,0.773c-0.611-0.664-1.687-1.256-2.32-1.061
	c-1.25-3.447-4.522-8.836-2.831-12.5c1.584-3.434,2.965-5.041,6.227-6.664c1.58-0.785,2.84-1.379,4.625-0.932
	c0.923,0.23,1.663,0.857,2.646,0.963"/>
<path fill="#F8B017" d="M144.699,422.33c-0.28-1.103-0.268-2.372-0.733-3.495c-0.344-0.828-1.065-2.311-1.94-2.637
	c-0.255,1.855,0.854,3.878,0.936,5.745c-0.369-0.373-0.508-0.873-0.803-1.31c-0.432-0.637-1.066-1.079-1.52-1.693
	c-0.394,1.223,1.128,2.408,1.22,3.621c-1.152-0.465-1.693-2.26-3.065-2.648c0.636,0.954,2.114,1.878,2.319,3.037
	c-0.541-1.064-1.906-1.78-3.004-2.111c0.789,0.689,2.116,1.24,2.337,2.388c-1.163,0.137-2.784-1.555-3.896-1.882
	c0.8,0.81,2.325,1.695,2.714,2.781c-1.259-0.287-2.418-0.994-3.764-0.807c0.836,0.408,2.383,0.621,2.938,1.441
	c-0.5,0.16-1.086-0.113-1.601-0.234c-1.078-0.256-2.176-0.629-3.302-0.48c0.578,0.684,1.855,0.557,2.59,1.141
	c-1.46,0.418-3.643-0.268-5.024,0.623c1.272,0.6,3.163,0.229,4.269,0.99c-0.936,0.197-1.921,0.182-2.871,0.254
	c-0.846,0.066-2.469-0.041-3.156,0.582c1.156,0.479,2.852-0.354,3.953,0.145c-1.781,1.201-4.303,1.396-6.165,2.627
	c1.361,0.117,3.008-0.369,4.25-0.891c-2.48,0.553-5.626,1.451-7.793,2.828c1.265,0.051,3.094-0.926,4.335-1.35
	c-1.1,0.479-2.103,1.289-3.029,2.031c-0.568,0.453-1.447,1.025-1.725,1.727c1.115,0.002,2.166-1.027,3.291-1.195
	c-1.015,1.314-2.858,2.049-4.03,3.268c0.753,0.209,2.297-0.547,3.021-0.953c-1.089,0.754-2.417,1.814-3.167,2.912
	c0.578,0.42,1.934-0.68,2.517-0.922c-0.405,1.154-2.103,1.838-2.725,2.943c0.848-0.086,1.689-0.828,2.437-1.211
	c-0.376,0.455-0.91,0.768-1.292,1.219c0.98-0.584,2.324-1.742,3.471-1.953c0.566-0.105,0.417-0.018,0.867,0.193
	c0.553,0.258,1.363,1.125,1.979,1.029c0.789-0.121,1.694-1.719,2.395-2.176c0.778-0.508,1.566-0.895,2.297-1.475
	c1.332-1.053,2.303-1.549,4.032-1.318c0.763,0.102,1.659,0.189,2.367,0.49c1.045,0.443,1.544,1.502,2.318,2.277
	c0.779,0.785,1.359,1.283,1.665-0.109c0.087-0.396,0.007-0.764,0.058-1.154c0.098-0.756,1.138,0.016,1.49-0.645
	c1.152,0.311,0.635-3.143,0.834-3.867c0.119-0.436,0.274-0.381,0.371-0.898c0.262-1.398-0.191-2.779-0.448-4.131
	c0.181,0.494,0.481,0.938,0.862,1.324c0.879-0.92-1.142-5.068-2.016-5.635c0.127,0.371,0.425,0.646,0.714,0.904
	c0.132-0.766-1.421-2.228-1.842-2.694c-0.582-0.645-1.304-1.224-1.779-1.957"/>
<path fill="#F8B017" d="M149.181,421.334c0.28-1.103,0.268-2.374,0.734-3.496c0.344-0.828,1.066-2.311,1.94-2.637
	c0.255,1.855-0.853,3.879-0.936,5.745c0.369-0.373,0.507-0.874,0.802-1.311c0.432-0.636,1.067-1.078,1.52-1.693
	c0.393,1.223-1.129,2.407-1.22,3.622c1.152-0.465,1.693-2.26,3.065-2.649c-0.636,0.953-2.114,1.879-2.32,3.036
	c0.541-1.063,1.907-1.779,3.005-2.11c-0.79,0.689-2.116,1.24-2.337,2.389c1.164,0.135,2.784-1.555,3.897-1.883
	c-0.8,0.809-2.325,1.694-2.714,2.78c1.259-0.287,2.418-0.994,3.765-0.807c-0.838,0.408-2.384,0.623-2.938,1.441
	c0.5,0.158,1.086-0.111,1.601-0.234c1.078-0.256,2.176-0.629,3.302-0.482c-0.579,0.684-1.855,0.561-2.591,1.143
	c1.46,0.42,3.644-0.268,5.024,0.625c-1.272,0.598-3.163,0.227-4.269,0.988c0.936,0.195,1.921,0.182,2.87,0.254
	c0.847,0.066,2.47-0.041,3.157,0.582c-1.157,0.479-2.851-0.354-3.953,0.145c1.78,1.201,4.301,1.396,6.164,2.627
	c-1.361,0.117-3.008-0.369-4.25-0.891c2.48,0.553,5.626,1.451,7.793,2.828c-1.265,0.049-3.093-0.926-4.334-1.35
	c1.099,0.479,2.103,1.291,3.028,2.031c0.568,0.455,1.446,1.025,1.725,1.725c-1.115,0.004-2.167-1.027-3.291-1.193
	c1.014,1.314,2.857,2.051,4.03,3.268c-0.754,0.209-2.297-0.547-3.022-0.953c1.089,0.754,2.417,1.814,3.167,2.91
	c-0.579,0.422-1.935-0.678-2.518-0.92c0.405,1.154,2.103,1.838,2.725,2.943c-0.847-0.086-1.688-0.826-2.436-1.211
	c0.375,0.455,0.909,0.768,1.292,1.219c-0.981-0.584-2.323-1.74-3.471-1.953c-0.566-0.105-0.417-0.018-0.867,0.193
	c-0.552,0.258-1.362,1.125-1.979,1.029c-0.788-0.121-1.694-1.719-2.394-2.176c-0.779-0.508-1.566-0.895-2.298-1.475
	c-1.332-1.055-2.302-1.549-4.031-1.318c-0.763,0.102-1.659,0.188-2.367,0.49c-1.045,0.445-1.545,1.502-2.318,2.279
	c-0.78,0.783-1.36,1.281-1.666-0.111c-0.087-0.396-0.007-0.766-0.058-1.154c-0.098-0.754-0.523-1.453-0.875-2.115
	c-1.152,0.312-1.25-1.67-1.448-2.395c-0.12-0.438-0.274-0.383-0.372-0.9c-0.262-1.396,0.191-2.777,0.448-4.129
	c-0.181,0.494-0.481,0.938-0.861,1.322c-0.879-0.918,1.141-5.068,2.015-5.635c-0.128,0.373-0.425,0.648-0.714,0.904
	c-0.132-0.764,1.422-2.228,1.842-2.693c0.583-0.646,1.304-1.224,1.779-1.956"/>
<path fill="#E1DBCD" d="M128.479,445.851c-2.209,1.543-2.692,2.906-3.068,5.539c0.554-1.211,1.906-2.725,3.202-3.039
	c-0.686,0.979-1.891,2.346-1.597,3.607c0.664-0.82,1.069-1.789,1.585-2.711c-0.045,0.385,0.106,0.916,0.086,1.305
	c0.165-0.354,0.531-0.762,0.657-1.158c0.381,0.975-0.003,2.07,0.322,3.021c0.107-0.082,0.202-0.178,0.286-0.283
	c-0.008,0.48,0.081,0.988,0.048,1.467c0.112-0.562,0.228-1.182,0.434-1.729c0.359,1.092,0.149,2.342,0.165,3.494
	c0.699-0.469,0.897-1.564,1.344-2.26c0.284,1.227,0.107,2.57-0.106,3.818c0.361-0.998,0.592-2.09,1.074-3.041
	c-0.217,1.053-0.507,2.102-0.593,3.176c0.237-0.373,0.411-0.998,0.51-1.516c-0.019,0.76-0.076,1.547,0.033,2.285
	c0.383-0.693,0.542-1.473,0.945-2.141c0.114,0.906,0.065,1.824,0.025,2.738c0.198-0.953,0.568-1.967,1.195-2.729
	c0.068,0.658,0.035,1.312,0.018,1.979c0.064-0.389,0.216-0.721,0.31-1.094c0.261,0.467,0.36,1.041,0.284,1.58
	c0.064-0.531,0.285-1.043,0.627-1.441c0.241,1.074,0.091,2.213,0.146,3.328c0.294-0.48,0.516-1.055,0.713-1.561
	c0.068,0.852-0.171,1.951,0.2,2.641c0.16-0.26,0.332-0.369,0.47-0.664c0.203,0.965-0.037,2.074,0.527,2.979
	c0.487-0.686,0.691-1.484,1.032-2.246c0.001,0.217,0.052,0.484,0.048,0.725c0.563-0.547,0.762-1.744,1.122-2.578
	c0.024,1.012-0.239,2.029-0.299,3.045c0.802-0.268,1.123-2.957,1.127-3.727c-0.021,1.119-0.026,3.508,0.738,4.334
	c0.566-0.932,0.883-2.117,1.143-3.164c0.163,0.812,0.269,1.693,0.615,2.449c0.03-0.396,0.22-0.861,0.29-1.127
	c0.069,1.004-0.049,2.238,1.123,2.27c0.276-0.635,0.584-1.256,0.923-1.857c0.171,0.914-0.101,2.332,0.559,2.977
	c0.735-1.477,0.667-3.539,0.568-5.152c-0.069,0.818,0.021,1.656,0.431,2.367c0.477-0.184,0.853-0.65,1.018-1.205
	c0.181,0.535,0.266,1.322,0.483,1.943c0.296-0.32,0.458-0.707,0.483-1.16c0.544,0.115,0.863,0.629,0.924,1.303
	c0.265-0.338,0.465-0.885,0.514-1.367c0.149,0.779,0.269,1.641,0.547,2.389c0.562-0.621,0.609-1.461,0.728-2.275
	c0.189,0.83,0.25,1.682,0.478,2.5c0.692-0.965,1.24-2.412,1.148-3.607c-0.093,0.834-0.169,1.941,0.271,2.637
	c0.239-0.789,0.305-2.057,0.979-2.467c0.144,0.889,0.243,1.777,0.667,2.586c0.958-0.863,0.594-3.752,0.904-5.012
	c0.358,0.736,0.28,1.822,0.489,2.721c1.37-1.17,0.601-3.34,1.611-4.707c0.307,1.092,0.249,2.219,0.436,3.33
	c0.536-1.707-0.153-3.385,0.787-5.096c0.486,0.115,0.642,0.465,0.469,1.043c0.092-1.357,0.064-2.789,0.333-4.16
	c0.427,0.447,0.448,1.275,0.637,1.967c0.908-1.113-0.013-2.787,1.022-3.893c0.765,1.047,0.529,2.582,0.578,3.764
	c0.1-0.707,0.199-1.354,0.498-1.992c0.281,0.779,0.399,1.646,0.761,2.359c0.487-1.369,0.323-2.994,0.658-4.42
	c0.559,0.354,0.507,1.443,0.545,2.133c-0.082-1.291-0.109-2.643,0.241-3.898c0.326,1.074,0.199,2.23,0.425,3.328
	c0.163-1.342,0-3.141,0.791-4.252c-0.007,0.16,0.042,0.291,0.146,0.396c-0.094-0.84-0.496-1.988,0.407-2.336
	c-1.772-2.689-3.387,0.438-5.13,1.629c-1.481,1.014-3.28,1.486-4.983,1.988c-4.035,1.191-8.37,2.248-12.607,2.041
	c-2.836-0.139-4.95-1.35-7.555-2.209c-1.217-0.4-2.671-0.158-3.818-0.604c-1.454-0.562-2.133-1.898-3.95-1.301"/>
<path fill="#FFFFFF" d="M140.675,447.863c0,0-1.419-4.635-4.185-5.006c-2.765-0.373-4.184,0.521-6.126,0.598
	c-1.943,0.076-5.305-1.793-5.23-3.586c0.075-1.795,1.718-4.482,4.035-3.961s3.438-0.074,4.184-0.373
	c0.747-0.299,3.736,2.168,4.857,3.811c1.121,1.645,3.437,4.035,3.213,6.277C141.199,447.863,141.199,448.087,140.675,447.863z"/>
<path fill="#AC9E91" d="M127.39,446.359c0.628-0.242,1.176-0.805,1.802-1.078c-0.473,0.408-0.817,0.945-0.798,1.564
	c0.288-0.469,0.649-0.764,1.045-0.883c-0.275,0.371-0.443,0.811-0.545,1.15c0.738-0.74,2.026-1.018,2.952-1.408
	c-0.597,0.811-1.55,1.541-1.479,2.643c0.431-0.553,0.925-1.078,1.529-0.883c-0.58,0.426-1.345,0.891-1.382,1.629
	c0.63-0.678,2.108-1.15,2.186-2.029c-0.558,0.389-0.819,1.047-0.834,1.752c0.439-0.646,1.382-1.195,2.059-1.625
	c-0.389,1.186-1.315,2.074-1.193,3.559c0.552-0.863,1.546-1.92,2.524-2.289c-0.695,0.721-0.935,2.303-0.965,3.191
	c0.503-0.852,0.951-1.867,2.086-2.107c-0.58,0.689-1.15,1.578-1.104,2.553c0.294-0.775,1.033-1.49,1.846-1.773
	c-0.343,0.67-0.818,1.439-0.608,2.385c0.416-0.527,1.037-1.021,1.718-1.268c-0.845,0.762-2.143,2.453-1.647,3.658
	c0.759-0.795,1.181-2.061,2.247-2.525c-0.379,0.697-0.76,1.631-0.688,2.52c0.367-0.814,0.933-1.594,1.729-1.963
	c-0.411,0.922-0.808,1.838-0.833,2.836c0.823-0.648,1.18-1.746,2.097-2.426c-0.896,0.664-0.884,3.164-0.866,4.184
	c0.309-0.527,0.704-1.559,1.361-1.738c0.149,0.873-0.149,1.82,0.147,2.672c0.506-0.477,0.383-1.57,0.863-2.189
	c0.061,0.871-0.232,2.002,0.293,2.73c0.344-0.986-0.041-2.795,0.808-3.496c0.047,0.922,0.179,1.674,0.415,2.555
	c-0.051-0.357,0.001-0.717,0.153-1.043c0.075,1.025-0.074,2.207,0.756,3c0.476-0.939-0.079-2.607,0.208-3.684
	c0.405,0.992,0.229,2.146,0.781,3.146c-0.022-1.176-0.067-2.383,0.052-3.555c0.431,0.916,0.175,4.561,1.504,4.869
	c0.131-0.699-0.053-1.412,0.05-2.113c0.422,0.914,0.796,1.826,1.506,2.561c0.305-0.889-0.076-2.111-0.006-3.076
	c0.433,0.615,0.316,1.52,0.969,1.959c0.016-0.719-0.054-1.49,0.04-2.18c0.109,0.529,0.22,1.059,0.345,1.582
	c0.046-1.381,0.091-2.764,0.264-4.137c0.448,1.197,0.192,2.564,0.812,3.734c0.219-0.738,0.189-1.516,0.353-2.271
	c1.397,1.527,1.199-0.932,1.292-2.182c0.376,0.49,0.219,1.131,0.722,1.453c0.199-0.473,0.183-0.988,0.15-1.492
	c0.12,0.426,0.25,0.846,0.525,1.195c0.046-0.076,0.104-0.158,0.147-0.275c0.117,0.168,0.499,0.365,0.621,0.525
	c0.224-0.451,0.046-1.023,0.174-1.543c0.188,0.305,0.333,0.654,0.422,1.018c0.448-0.973,0.154-2.912,0.366-4.117
	c0.303,0.787,0.164,1.721,0.253,2.549c0.7-0.217,0.465-1.049,0.983-1.486c0.539,0.574,0.916,1.801,1.775,2.018
	c0.007-0.707-0.539-1.426-1.008-1.936c0.417,0.33,0.807,0.764,1.052,1.246c0.183-1.205-0.709-2.809-1.193-3.891
	c0.345,0.543,0.979,1.012,1.076,1.646c-0.085-1.189-0.358-2.428-0.566-3.613c0.455,0.303,0.948,1.1,0.95,1.627
	c-0.139-0.326-0.798-1.768-0.191-2.01c0.409-0.162,1.162,1.229,1.384,1.5c0.081-1.082,0.069-2.395-0.483-3.26
	c0.674,0.693,1.169,1.684,1.708,2.477c-0.045-0.949,0.164-2.029-0.206-2.928c-0.191-0.465-0.59-0.678-0.7-1.191
	c0.954,0.281,1.422,1.502,1.913,2.236c0.325-1.344,0.02-2.285-1.095-3.078c1.251,0.225,1.16,1.623,2.042,2.186
	c-1.743-8.059-9.729,4.758-11.643,6.35c-2.034,1.689-3.881,0.643-5.697-0.863c-2.974-2.463-5.502-5.434-8.699-7.635
	c-1.935-1.332-3.931-2.35-6.187-1.154C129.904,443.437,128.851,444.867,127.39,446.359z"/>
<path fill="#37302E" d="M145.733,454.289c0,0,0.747,1.346,2.541,1.531c1.793,0.188,2.615-0.447,3.4-1.531
	C152.457,453.207,145.733,454.289,145.733,454.289z"/>
<path fill="#F3981D" d="M161.735,435.757c0,0-4.383,5.033-5.13,6.229s-1.943,4.033-1.544,5.082c0.398,1.045,1.245,3.484,0.498,3.088
	c-0.747-0.4-5.28-2.242-7.073-2.043s-6.973,1.047-7.322,1.594c-0.349,0.549-0.647,0.398-0.647,0.398s0.209-0.652,0.409-1.525
	c0.277-1.215,0.537-2.855,0.189-3.754c-0.598-1.545-5.33-6.525-5.978-8.021c-0.648-1.494-2.939-4.281,1.444-5.279
	c4.384-0.996,7.074,4.584,8.17,4.533s2.091-2.49,3.288-2.541c1.195-0.051,3.437,2.428,4.234,2.178s1.444-5.467,6.077-4.369
	C162.98,432.421,163.429,433.865,161.735,435.757z"/>
<path fill="#F8B017" d="M140.465,449.656c0,0,1.121-2.465,2.391-2.316c1.271,0.15,2.167,1.121,2.989,0.674
	c0.822-0.447,1.644-2.168,2.54-2.168c0.897,0,2.242,2.467,3.513,2.467c1.27,0,4.359,0.273,3.86,1.744
	C155.26,451.525,139.942,452.421,140.465,449.656z"/>
<path fill="#CBD4D1" d="M144.425,454.177c0,0,0.411,2.316,3.4,2.615c2.988,0.299,4.109-1.682,4.146-2.279
	C152.009,453.916,144.463,453.503,144.425,454.177z"/>
<path fill="#37302E" d="M145.583,454.289c0,0,0.748,1.346,2.541,1.531c1.794,0.188,2.616-0.447,3.4-1.531
	C152.308,453.207,145.583,454.289,145.583,454.289z"/>
<path fill="#E4E1D7" d="M141.412,452.894c0.647,1.047,2.64,2.689,7.621,2.541c4.981-0.148,7.123-4.135,6.725-5.379
	c-0.399-1.248-3.039-0.398-3.587-0.199c-0.547,0.199-6.052,0.846-6.886,0.398c-0.834-0.449-4.122-1.545-4.77-0.15
	S141.412,452.894,141.412,452.894z"/>
<path fill="#CDC5B7" d="M141.412,452.894c0,0-0.349-1.033,0.51-0.959c0.86,0.076,4.297,2.094,6.202,2.055
	c1.906-0.035,4.969-1.941,5.791-1.643c0.822,0.299,0.523,1.008-0.86,1.904c-1.381,0.896-6.014,1.645-8.928,0.523
	C141.212,453.654,141.412,452.894,141.412,452.894z"/>
<path fill="#B6ACA2" d="M144.724,453.841c1.046-0.375,3.026,0.709,4.259,0.484c1.232-0.225,4.558-0.973,3.922-0.037
	c-0.635,0.934-6.127,1.605-7.584,0.896C143.865,454.476,144.724,453.841,144.724,453.841z"/>
<path fill="#2A2F28" d="M145.285,450.255c0,0,0.075,2.951,1.532,3.734c1.457,0.785,1.98,0.674,2.278,0.709
	c0.299,0.039,1.906-0.521,2.354-0.934c0.449-0.412,1.046-2.764,1.008-3.324c-0.037-0.561-0.374,0.484-0.374,0.484
	s-0.859-1.793-2.017-2.018c-1.158-0.225-2.541-0.111-2.877,0.074c-0.335,0.188-1.531,1.906-1.531,1.906
	S145.509,450.255,145.285,450.255z"/>
<path fill="#E1DBCD" d="M146.714,451.525c0,0,0.866-0.289,2.084-0.289c1.218,0,2.148,0.225,2.148,0.225s-0.321-0.932-1.956-0.834
	C147.355,450.722,146.457,451.205,146.714,451.525z"/>
<path fill="#101211" d="M150.901,452.046c0,0-0.997-0.174-1.071,0.674c-0.075,0.848,0.423,1.17,0.896,1.047
	C151.199,453.642,151.698,452.32,150.901,452.046z"/>
<path fill="#101211" d="M147.004,452.046c0,0,0.996-0.174,1.071,0.674c0.075,0.848-0.423,1.17-0.896,1.047
	C146.706,453.642,146.208,452.32,147.004,452.046z"/>
<path fill="#E55F11" d="M155.409,448.312c0,0-0.598,0.822-1.495-0.449c-0.897-1.27-2.765-5.305-2.839-7.473
	c-0.075-2.166,0.075-4.107,0.896-3.959c0.822,0.15,1.121,1.867,2.914,1.793c1.793-0.072,0.672,2.689,0.299,4.635
	C154.812,444.8,156.007,447.414,155.409,448.312z"/>
<path fill="#E55F11" d="M142.109,448.312c0,0,0.598,0.822,1.494-0.449c0.897-1.27,2.765-5.305,2.84-7.473
	c0.075-2.166-0.075-4.107-0.897-3.959c-0.822,0.15-1.121,1.867-2.914,1.793c-1.793-0.072-0.672,2.689-0.298,4.635
	C142.707,444.8,141.512,447.414,142.109,448.312z"/>
<g>
	<path fill="#101211" d="M159.697,432.748c0,0-0.677-1.494-2.575-1.268c-1.899,0.227-2.939,1.584-3.164,2.439
		c-0.228,0.861-0.453,1.764-0.634,2.082c-0.181,0.314-0.181,0.768,0.361,0.812c0.543,0.043,1.537-0.092,2.441-0.092
		c0.903,0,2.44-0.812,3.163-1.898c0.725-1.084,1.041-1.537,1.086-1.762C160.422,432.835,159.697,432.748,159.697,432.748z"/>
	<path fill="#101211" d="M158.975,432.429c0.276,0.248,0.786,2.6-1.18,3.277c-1.968,0.678-4.114,1.084-4.228,0.656
		c-0.114-0.43,0.135-2.328,1.537-3.277C156.507,432.136,157.974,431.527,158.975,432.429z"/>
	<path fill="#925619" d="M158.653,432.988c0,0,0.783,2.199-1.597,2.982c-2.381,0.783-2.78-1.234-2.804-1.479
		C154.163,433.531,156.996,430.906,158.653,432.988z"/>
	<path fill="#101211" d="M155.971,432.988c0,0-0.391,0.512-0.271,1.025c0.12,0.51,0.452,1.475,1.085,1.055
		c0.633-0.424,0.843-1.479,0.542-1.932C157.026,432.687,156.454,432.443,155.971,432.988z"/>
	<ellipse fill="#FFFFFF" cx="156.559" cy="432.958" rx="0.889" ry="0.423"/>
	<path fill="#583428" d="M160.104,432.521c0,0,2.531,0.271,4.431,2.172c1.899,1.895,2.26,1.986,3.073,1.986
		c0.814,0,0.995,0.994,0.181,0.994c-0.813,0-2.621-0.904-3.526-1.896c-0.903-0.994-3.346-2.984-3.887-2.713
		C159.834,433.333,159.653,432.703,160.104,432.521z"/>
	<path fill="#B9501A" d="M153.596,432.703c0,0,0.904-3.889,3.977-4.16c3.074-0.271,4.975,2.982,4.975,3.436
		c0,0.451-2.442-1.086-4.702-0.902C155.584,431.253,154.5,432.972,153.596,432.703z"/>
</g>
<g>
	<path fill="#101211" d="M137.305,432.912c0,0-0.15,1.479,1.054,2.502c1.206,1.023,3.014,1.297,3.737,1.416
		c0.724,0.121,1.446,0.482,1.777,0.303c0.333-0.182,0.181-1.748-0.843-3.104c-1.025-1.357-2.473-2.713-4.642-2.502
		c-2.169,0.211-1.929,0.963-1.718,1.236C136.882,433.033,137.305,432.912,137.305,432.912z"/>
	<path fill="#101211" d="M137.575,432.271c-0.044,0.105-0.293,2.713,1.673,3.393c1.968,0.678,4.114,1.084,4.228,0.654
		c0.111-0.43-0.137-2.328-1.537-3.277C140.537,432.091,138.095,431.029,137.575,432.271z"/>
	<path fill="#925619" d="M138.389,432.943c0,0-0.783,2.197,1.598,2.982c2.381,0.783,2.78-1.234,2.802-1.477
		C142.88,433.484,140.046,430.863,138.389,432.943z"/>
	<path fill="#101211" d="M141.071,432.943c0,0,0.393,0.51,0.271,1.023c-0.121,0.512-0.453,1.479-1.085,1.055
		c-0.632-0.422-0.844-1.479-0.542-1.928C140.017,432.64,140.588,432.4,141.071,432.943z"/>
	<ellipse fill="#FFFFFF" cx="140.484" cy="432.911" rx="0.889" ry="0.423"/>
	<path fill="#583428" d="M136.46,432.521c0,0-2.532,0.271-4.431,2.172c-1.898,1.895-2.26,1.986-3.073,1.986
		s-0.995,0.994-0.182,0.994c0.814,0,2.623-0.904,3.525-1.896c0.905-0.994,3.347-2.984,3.889-2.713
		C136.732,433.333,136.913,432.703,136.46,432.521z"/>
	<path fill="#B9501A" d="M143.362,432.703c0,0-0.905-3.889-3.978-4.16c-3.074-0.271-4.973,2.982-4.973,3.436
		c0,0.451,2.44-1.086,4.701-0.902C141.373,431.253,142.457,432.972,143.362,432.703z"/>
</g>
<path fill="#FFFFFF" d="M155.782,448.162c0,0,1.42-4.631,4.185-5.006c2.765-0.375,4.184,0.521,6.127,0.598
	c1.942,0.074,5.304-1.793,5.23-3.586c-0.075-1.793-1.719-4.484-4.035-3.961s-3.438-0.074-4.185-0.373s-3.735,2.166-4.856,3.811
	s-3.437,4.035-3.213,6.277C155.26,448.162,155.26,448.386,155.782,448.162z"/>
<path fill="none" stroke="#FCFBF9" d="M157.631,449.128"/>
<path fill="#E55F11" d="M150.906,434.484c0,0-0.298-1.719,0.15-2.689c0.449-0.973,0.46-1.146-0.511-3.389
	c-0.972-2.242-1.644-2.99-2.839-2.168c-1.195,0.82-1.524,2.559-1.15,3.756c0.373,1.195-0.581,2.697-0.955,3.816
	c-0.373,1.121-0.748,2.168,0.225,1.943c0.971-0.225,1.942-2.168,2.765-1.867c0.821,0.297,2.091,2.24,2.465,1.791
	C151.429,435.23,150.906,434.484,150.906,434.484z"/>
<path fill="#FFFFFF" d="M125.375,437.083c-0.488,0.273-0.754,0.578-1.137,0.934c-0.282,0.264-0.581,0.35-0.642,0.73
	c0.413-0.385,0.848-0.613,1.316-0.928c0.3-0.201,0.561-0.51,0.912-0.609c-0.56,0.213-0.943,0.785-1.333,1.223
	c-0.341,0.389-1.001,0.773-1.158,1.281c1.013-0.363,1.887-1.363,2.983-1.516c-1.145,0.637-2.151,1.697-3.023,2.656
	c0.709-0.428,1.367-0.92,2.101-1.322c0.466-0.256,1.147-0.799,1.666-0.838c-1.047,0.957-2.051,1.934-2.32,3.371
	c1.034-0.887,2.108-1.967,3.241-2.832c-0.833,0.646-1.666,1.336-2.313,2.174c-0.499,0.645-0.665,1.354-0.996,2.066
	c1.016-1.471,2.881-2.229,4.216-3.359c-1.438,1.051-2.973,3.287-3.323,5.051c0.033-0.168,1.312-0.863,1.503-1.031
	c0.495-0.436,0.949-0.92,1.41-1.391c0.899-0.92,1.28-1.797,1.864-2.922c-0.306,0.141-0.604,0.305-0.925,0.418
	c0.002-0.234,0.203-0.393,0.317-0.598c-0.044,0.004-0.196-0.055-0.28-0.037c0.085-0.135,0.197-0.299,0.272-0.445
	c-0.283-0.02-0.572,0.031-0.852,0.049c0.213-0.229,0.469-0.416,0.667-0.656c-0.417-0.014-0.817,0.139-1.209,0.273
	c0.069-0.232,0.351-0.447,0.455-0.715c-0.35-0.014-0.839,0.143-1.126-0.025c0.078-0.299,0.295-0.523,0.527-0.729
	c-0.231-0.008-0.519,0.039-0.716,0.057c0.146-0.164,0.279-0.336,0.401-0.516c-0.194-0.086-0.413,0-0.574,0.145
	c0.349-0.072,0.701-0.475,0.967-0.713C127.14,436.238,126.34,436.542,125.375,437.083z"/>
<path fill="#FFFFFF" d="M169.505,437.083c0.487,0.273,0.754,0.578,1.137,0.934c0.282,0.264,0.581,0.35,0.642,0.73
	c-0.414-0.385-0.848-0.613-1.317-0.928c-0.3-0.201-0.561-0.51-0.912-0.609c0.56,0.213,0.943,0.785,1.333,1.223
	c0.341,0.389,1.001,0.773,1.158,1.281c-1.013-0.363-1.888-1.363-2.983-1.516c1.146,0.637,2.152,1.697,3.023,2.656
	c-0.71-0.428-1.367-0.92-2.101-1.322c-0.466-0.256-1.147-0.799-1.666-0.838c1.047,0.957,2.051,1.934,2.32,3.371
	c-1.034-0.887-2.107-1.967-3.241-2.832c0.834,0.646,1.667,1.336,2.314,2.174c0.499,0.645,0.665,1.354,0.997,2.066
	c-1.017-1.471-2.881-2.229-4.218-3.359c1.438,1.051,2.973,3.287,3.323,5.051c-0.033-0.168-1.312-0.863-1.503-1.031
	c-0.495-0.436-0.95-0.92-1.41-1.391c-0.898-0.92-1.28-1.797-1.864-2.922c0.307,0.141,0.604,0.305,0.925,0.418
	c-0.002-0.234-0.203-0.393-0.317-0.598c0.044,0.004,0.196-0.055,0.282-0.037c-0.085-0.135-0.197-0.299-0.273-0.445
	c0.283-0.02,0.572,0.031,0.852,0.049c-0.213-0.229-0.468-0.416-0.667-0.656c0.418-0.014,0.818,0.139,1.21,0.273
	c-0.069-0.232-0.351-0.447-0.454-0.715c0.349-0.014,0.838,0.143,1.126-0.025c-0.078-0.299-0.295-0.523-0.526-0.729
	c0.232-0.008,0.519,0.039,0.715,0.057c-0.146-0.164-0.279-0.336-0.401-0.516c0.195-0.086,0.413,0,0.575,0.145
	c-0.349-0.072-0.701-0.475-0.966-0.713C167.74,436.238,168.541,436.542,169.505,437.083z"/>
<path fill="#E55F11" d="M135.942,421.515c1.188-0.171,3.098,1.037,3.962,1.76c-0.625-0.416-1.324-1.002-1.681-1.664
	c0.808,0.359,1.613,0.736,2.427,1.088c-0.918-0.82-2.142-1.313-2.987-2.192c0.521-0.01,0.935,0.313,1.366,0.583
	c-0.677-0.599-1.777-1.357-2.154-2.188c1.004,0.06,1.864,0.849,2.737,1.289c-0.039-0.052-0.184-0.265-0.308-0.381
	c1.229,0.599,2.292,1.5,3.374,2.321c-0.39-0.757-1.91-1.825-1.86-2.627c0.261,0.284,0.498,0.62,0.779,0.901
	c-0.226-0.691-0.991-1.503-0.906-2.142c0.996,0.467,1.743,1.354,2.442,2.176c-0.479-0.635-0.968-1.263-1.416-1.92
	c0.438,0.034,0.8,0.233,1.182,0.484c-0.322-0.485-0.71-0.921-0.947-1.46c0.549-0.283,1.531,0.369,1.872,0.791
	c-0.622-0.569-1.174-1.389-1.558-2.146c0.883,0.022,1.842,0.793,2.492,1.33c-0.611-0.706-1.184-1.425-1.729-2.184
	c0.759,0.063,1.774,1.232,2.225,1.819c-0.48-0.559-0.863-1.276-1.188-1.936c0.455,0.222,0.894,0.486,1.278,0.812
	c-0.123-0.647-0.473-1.168-0.756-1.728c0.563,0.268,1,0.737,1.337,1.268c-0.403-0.579-1.032-1.363-1.101-2.044
	c0.138,0.028,0.237,0.109,0.301,0.24c-0.837,0.073-2.124-1.553-2.688-2.091c0.39-0.246,2.624,1.331,3.088,1.729
	c-1.005-0.308-2.186-1.629-2.771-2.501c1.612,0.278,3.694,2.106,3.873,3.821c-0.154-0.161-0.321-0.255-0.433-0.572
	c0.405,0.628,0.847,1.276,1.129,1.972c-0.19-0.245-0.393-0.479-0.569-0.734c0.369,0.497,0.71,1.051,0.908,1.64
	c-0.422-0.197-0.779-0.625-1.16-0.952c0.253,0.363,0.501,0.754,0.671,1.163c-0.458,0.04-0.858-0.518-1.302-0.773
	c0.205,0.572,0.623,1.064,0.668,1.674c-0.195-0.023-0.359-0.109-0.491-0.258c0.252,0.374,0.495,0.75,0.659,1.17
	c-0.14-0.159-0.343-0.323-0.484-0.496c0.081,0.146,0.141,0.301,0.177,0.464c-0.159-0.226-0.385-0.394-0.554-0.594
	c0.162,0.554,0.399,1.074,0.586,1.619c-0.06-0.043-0.238-0.133-0.323-0.192c0,0.202-0.125,0.438-0.109,0.661
	c-0.028-0.002-0.193,0.038-0.213,0.062c-0.3-0.418-0.612-0.834-0.974-1.203c0.53,0.761,1.041,1.542,1.536,2.327
	c-0.59-0.355-1.126-0.837-1.609-1.327c0.358,0.507,0.817,0.975,0.878,1.559c-0.781-0.043-1.568-1.042-2.121-1.53
	c0.026,0.172,0.092,0.33,0.197,0.474c-0.383-0.01-0.734-0.344-1.009-0.683c0.207,0.636,0.524,1.226,0.77,1.842
	c-0.265-0.184-0.633-0.236-0.906-0.389c0.098,0.416,0.309,0.738,0.481,1.145c-0.125-0.066-0.386-0.111-0.541-0.221
	c0.147,0.457,0.377,0.85,0.591,1.287c-0.981,0.152-2.115-0.525-2.885-1.08c0.066,0.746,0.94,1.119,1.038,1.848
	c-0.558-0.377-1.086-0.965-1.693-0.947c0.21,0.477,0.515,0.879,0.788,1.318c-0.354-0.248-0.653-0.518-1.046-0.691
	c0.117,0.207,0.194,0.441,0.347,0.635c-0.477-0.561-0.754-1.256-1.232-1.803C138.024,422.714,136.496,421.435,135.942,421.515z"/>
<path fill="#E55F11" d="M159.288,421.515c-1.187-0.171-3.099,1.037-3.962,1.76c0.625-0.416,1.323-1.002,1.68-1.664
	c-0.807,0.359-1.612,0.736-2.427,1.088c0.918-0.82,2.143-1.313,2.988-2.192c-0.522-0.01-0.935,0.313-1.366,0.583
	c0.677-0.599,1.777-1.357,2.155-2.188c-1.004,0.06-1.864,0.849-2.738,1.289c0.04-0.052,0.185-0.265,0.309-0.381
	c-1.228,0.599-2.292,1.5-3.375,2.321c0.391-0.757,1.911-1.825,1.861-2.627c-0.261,0.284-0.498,0.62-0.78,0.901
	c0.226-0.691,0.992-1.503,0.906-2.142c-0.997,0.467-1.744,1.354-2.443,2.176c0.479-0.635,0.969-1.263,1.416-1.92
	c-0.438,0.034-0.8,0.233-1.181,0.484c0.321-0.485,0.71-0.921,0.947-1.46c-0.549-0.283-1.53,0.369-1.872,0.791
	c0.622-0.569,1.174-1.389,1.558-2.146c-0.883,0.022-1.841,0.793-2.492,1.33c0.611-0.706,1.184-1.425,1.729-2.184
	c-0.76,0.063-1.774,1.232-2.225,1.819c0.48-0.559,0.862-1.276,1.187-1.936c-0.454,0.222-0.893,0.486-1.278,0.812
	c0.124-0.647,0.473-1.168,0.756-1.728c-0.563,0.268-0.999,0.737-1.336,1.268c0.403-0.579,1.032-1.363,1.1-2.044
	c-0.137,0.028-0.237,0.109-0.3,0.24c0.837,0.073,2.124-1.553,2.689-2.091c-0.391-0.246-2.624,1.331-3.088,1.729
	c1.005-0.308,2.186-1.629,2.771-2.501c-1.612,0.278-3.693,2.106-3.872,3.821c0.153-0.161,0.321-0.255,0.432-0.572
	c-0.405,0.628-0.846,1.276-1.129,1.972c0.19-0.245,0.394-0.479,0.57-0.734c-0.369,0.497-0.71,1.051-0.909,1.64
	c0.423-0.197,0.779-0.625,1.16-0.952c-0.254,0.363-0.501,0.754-0.671,1.163c0.457,0.04,0.858-0.518,1.301-0.773
	c-0.206,0.572-0.623,1.064-0.667,1.674c0.195-0.023,0.359-0.109,0.491-0.258c-0.253,0.374-0.495,0.75-0.66,1.17
	c0.14-0.159,0.344-0.323,0.485-0.496c-0.081,0.146-0.141,0.301-0.178,0.464c0.158-0.226,0.385-0.394,0.555-0.594
	c-0.162,0.554-0.399,1.074-0.586,1.619c0.059-0.043,0.237-0.133,0.324-0.192c-0.002,0.202,0.124,0.438,0.108,0.661
	c0.028-0.002,0.193,0.038,0.212,0.062c0.3-0.418,0.612-0.834,0.974-1.203c-0.53,0.761-1.041,1.542-1.535,2.327
	c0.59-0.355,1.125-0.837,1.609-1.327c-0.358,0.507-0.817,0.975-0.877,1.559c0.781-0.043,1.567-1.042,2.121-1.53
	c-0.027,0.172-0.092,0.33-0.198,0.474c0.383-0.01,0.734-0.344,1.01-0.683c-0.207,0.636-0.524,1.226-0.77,1.842
	c0.265-0.184,0.633-0.236,0.906-0.389c-0.098,0.416-0.309,0.738-0.482,1.145c0.125-0.066,0.386-0.111,0.541-0.221
	c-0.147,0.457-0.377,0.85-0.592,1.287c0.982,0.152,2.115-0.525,2.885-1.08c-0.066,0.746-0.94,1.119-1.038,1.848
	c0.559-0.377,1.086-0.965,1.694-0.947c-0.21,0.477-0.515,0.879-0.788,1.318c0.354-0.248,0.653-0.518,1.046-0.691
	c-0.117,0.207-0.195,0.441-0.347,0.635c0.477-0.561,0.754-1.256,1.232-1.803C157.205,422.714,158.733,421.435,159.288,421.515z"/>
<path fill="#1A2730" d="M162.048,412.761c0,0,6.002-8.856,0.281-15.997c-5.721-7.141-21.916-6.826-29.051,3.93
	c-7.135,10.756-2.315,16.685,0.469,17.197C136.531,418.406,161.314,415.453,162.048,412.761z"/>
<path fill="#1A2730" d="M133.597,414.118c0,0,2.743,3.336,2.898,3.297c0.155-0.039-2.349,0.914,2.786-0.432
	c5.135-1.346,8.702-2.808,11.673-3.094c2.971-0.286,9.852,0.178,10.772,1.467c0.92,1.29,0.327-5.723-0.831-6.571
	c-1.156-0.851-4.646-3.146-11.244-1.96C143.054,408.011,133.601,412.033,133.597,414.118z"/>
<path fill="#FFD500" d="M135.195,412.812c0,0,9.162-4.196,14.913-4.605c5.752-0.409,10.806,0.35,11.499,2.309
	c0.693,1.958,0.551,3.855,0.551,3.855s-1.978-3.124-8.75-2.333c-6.772,0.791-17.341,4.424-17.341,4.424s-1.511-0.188-1.823-1.127
	C133.932,414.397,134.315,413.358,135.195,412.812z"/>
<path fill="#101211" d="M137.906,417.364c0,0,10.243-3.354,14.302-3.583c4.061-0.231,8.699-0.037,9.858,1.805
	c1.16,1.84,2.793,4.481,2.793,4.481s-2.373-1.934-4.846-1.508c-2.473,0.426-12.839,3.389-16.312,2.899
	c-3.472-0.489-5.83-3.639-5.83-3.639S137.526,417.335,137.906,417.364z"/>
<path fill="#101211" d="M129.9,409.779c0,0,0.765,1.438,2.48-0.105c1.715-1.543,9.114-11.025,14.68-11.555
	c5.567-0.529,14.065,2.506,15.306,5.362c1.241,2.855,1.736,3.037,2.013,2.259c0.276-0.779-0.47-9.271-7.874-12.369
	c-7.404-3.099-16.474,2.478-18.546,3.922C135.889,398.737,129.176,408.779,129.9,409.779z"/>
<g>
	<g>
		<path fill="#C3AE4E" d="M156.108,400.577l-0.669-0.048c-0.202,2.723-2.383,4.771-4.899,4.769l-0.352-0.013
			c-2.538-0.187-4.5-2.402-4.5-5.074c0-0.136,0.006-0.271,0.014-0.412c0.203-2.726,2.385-4.773,4.9-4.77l0.351,0.013
			c2.538,0.186,4.5,2.403,4.504,5.076c0,0.135-0.007,0.271-0.018,0.411L156.108,400.577l0.667,0.049
			c0.01-0.171,0.018-0.339,0.018-0.508c0.003-3.325-2.458-6.159-5.741-6.409c-0.151-0.013-0.3-0.017-0.45-0.017
			c-3.258,0.003-5.983,2.621-6.234,6.007c-0.012,0.172-0.018,0.343-0.018,0.512c-0.001,3.327,2.457,6.157,5.738,6.407
			c0.153,0.012,0.303,0.017,0.453,0.017c3.258-0.004,5.982-2.621,6.235-6.008L156.108,400.577z"/>
	</g>
	<polygon fill="#FFFFFF" points="150.938,394.793 151.717,398.809 155.521,398.979 152.216,401.069 153.199,405.033
		150.377,402.306 147.179,404.582 148.738,400.81 145.782,398.253 149.567,398.648 	"/>
</g>
<path fill="#F3981D" d="M124.18,424.578c-0.627-1.244-1.309-2.295-1.744-3.647c-0.722-2.248-3.288-4.815-2.602-7.095
	c0.287-0.951,1.546,0.229,2.833,0.57c1.043,0.276,1.88,2.104,2.32,2.976c0.595,1.177,1.739,1.923,2.39,3.031
	c1.118,1.903,0.098,5.534-0.65,7.391c-0.461,1.145-1.022,1.82-2.024,2.477c-0.75,0.49,0.649-1.273,0.151-2.221
	C124.341,427.089,124.723,425.656,124.18,424.578z"/>
<path fill="#F3981D" d="M120.019,407.023c-0.374,1.082-0.604,2.294-0.683,3.434c-0.143,2.074,0.256,4.316,0.976,6.261
	c0.315,0.852,0.747,1.685,1.467,2.263c0.707,0.566,1.615,0.55,2.326,1.002c1.043,0.661,1.956,2.421,3.323,2.361
	c0.949-0.043,1.853-0.885,2.561-1.432c1.074-0.828,2.125-1.688,3.265-2.426c0.69-0.447,1.401,0.192,2.167-0.104
	c0.329-0.128,0.891-0.129,1.16-0.371c1.838-1.645-0.841-5.234-1.774-6.208c-0.673-0.702-1.499-1.148-2.166-1.832
	c-0.813-0.833-2.79-2.273-3.664-3.037c-1.415-1.235-2.298-1.915-3.507-2.729c-2.292-1.544-3.487-2.54-4.656,0.385
	C120.512,405.343,120.283,406.259,120.019,407.023z"/>
<path fill="#FFFFFF" d="M125.051,407.034c-0.663-0.016-1.22,0.523-1.529,1.065c0.211-0.125,0.474-0.188,0.666-0.32
	c-0.217,0.214-0.294,0.545-0.361,0.768c0.114,0.043,0.23,0.051,0.349,0.021c-0.139,0.108-0.316,0.377-0.469,0.479
	c0.161,0.036,0.08,0.024,0.269,0c-0.228,0.322-0.523,0.591-0.827,0.845c0.219,0.102,0.153,0.194,0.28,0.307
	c0.093,0.015,0.187,0.022,0.282,0.026c-0.115,0.132-0.113,0.39-0.177,0.498c0.089,0.043,0.22,0.117,0.31,0.146
	c-0.173,0.232-0.043,0.17-0.099,0.438c-0.227,0.248-0.095,0.448,0.299,0.558c0.325,0.495-0.269,1.199,0.535,1.458
	c-0.136,0.012-0.36,0.135-0.468,0.146c0.22,0.208,0.499,0.401,0.782,0.544c-0.114,0-0.391,0.11-0.575,0.107
	c0.203,0.428,0.676,0.685,1.148,0.735c-0.246,0.002-0.327,0.127-0.503,0.182c0.209,0.145,0.344,0.341,0.61,0.434
	c-0.38,0.006-0.792-0.056-1.116,0.098c0.102,0.333,0.34,0.592,0.664,0.718c-0.329-0.054-0.641,0.036-0.848,0.274
	c0.177,0.322,0.498,0.485,0.876,0.47c-0.193-0.044-0.406-0.001-0.601-0.014c0.198,0.546,0.837,0.872,1.295,1.161
	c-0.215,0.1-0.432,0.396-0.688,0.471c0.243,0.154,0.495,0.324,0.784,0.386c-0.185,0.028-0.352,0.145-0.428,0.171
	c0.511,0.208,1.167,0.08,1.717,0.094c-0.267,0.203-0.561,0.387-0.821,0.604c0.703,0.108,2.933-1.5,2.535-2.206
	c0.006,0.806,1.43-0.67,1.428-1.187c-0.262,0.084-0.42,0.056-0.654,0.298c0.57-0.562,1.553-3.335,0.242-3.659
	c-0.08,0.022-0.12,0.073-0.118,0.152c0.054,0.085,0.133,0.124,0.239,0.115c0.201-0.643-1.042-3.938-1.945-3.839
	c0.063,0.374,0.305,0.681,0.64,0.859c-0.633-1.024-1.4-2.23-2.377-2.965c0.212-0.109-0.665-0.476-1.096,0.084
	c-0.02-0.286-0.189-0.09-0.434-0.159"/>
<path fill="#E55F11" d="M145.833,424.988c0.46,0.396,1.036,0.83,1.209,1.436c-0.034-0.898-0.453-2-0.771-2.877
	c0.305,0.678,1.038,1.439,1.166,2.146c0.324-0.711,0.089-2.152,0.089-2.814c0,0.471-0.02,0.945,0.009,1.414
	c0.313-0.576,0.305-1.537,0.729-2.104c0.3,0.854,0.086,2.184,0.049,3.092c0.181-0.557,0.607-1.199,1.003-1.633
	c-0.092,0.74-0.589,1.361-0.546,2.189c-0.055-0.508,0.491-1.139,0.887-1.395c0.021,0.723-0.648,1.492-0.688,2.275
	c0.092-0.643,0.987-1.49,1.521-1.875c0.059,0.279-0.438,0.631-0.571,0.926c-0.13,0.293-0.215,0.633-0.196,0.951
	c0.232-0.461,0.719-1.332,1.096-1.547c0.04,0.83-0.203,1.717-0.358,2.531c0.022-0.281,0.32-0.604,0.556-0.693
	c0.021,0.611-0.229,1.432-0.473,1.99c0.128-0.355,0.448-0.811,0.726-1.084c0.021,0.686-0.453,1.387-0.572,2.061
	c0.153-0.381,0.416-0.881,0.764-1.082c0.032,0.605-0.281,1.168-0.252,1.771c-0.026-0.361,0.381-0.756,0.574-1.029
	c-0.23,0.832-0.61,1.643-0.554,2.506c0.079,1.211-0.268,1.145-1.329,0.918c-0.678-0.143-1.222-0.023-1.801,0.355
	c-0.434,0.285-0.946,0.902-1.525,0.791c-1.033-0.203-1.232-1.666-1.099-2.48c0.199-1.201-0.072-2.352-0.636-3.438
	c0.159,0.176,0.242,0.521,0.501,0.58c0.011,0.264,0.184,0.49,0.243,0.748c0.028-0.619-0.054-1.48-0.383-1.98
	c0.327,0.516,0.979,0.932,1.13,1.572c0.081-0.854-0.67-1.631-0.812-2.467c0.035,0.209,0.561,0.854,0.762,0.926
	c0.113-0.389,0.271-0.768,0.181-1.172c-0.116-0.525-0.515-0.996-0.681-1.51"/>
<path fill="#E55F11" d="M138.629,427.583c-0.743-0.375-1.373-1.189-2.221-1.34c0.396-0.229,0.937-0.051,1.268,0.215
	c-0.25-0.377-0.74-0.656-1.132-0.871c0.746,0.008,1.397,0.021,2.015,0.393c-0.323-0.342-0.811-0.51-1.185-0.775
	c0.508-0.064,1.203-0.045,1.526,0.412c-0.399-0.48-0.943-0.83-1.33-1.314c0.683,0.08,1.897,0.045,2.257,0.723
	c-0.504-0.311-0.706-1.068-1.078-1.52c0.541-0.008,1.582,0.389,1.826,0.889c-0.508-0.363-1.096-1.092-1.417-1.641
	c0.696,0.297,1.161,0.832,1.733,1.248c-0.507-0.691-1.09-1.469-1.37-2.285c0.694,0.383,1.686,0.852,2.008,1.629
	c-0.42-0.547-1.082-1.396-1.145-2.086c0.601,0.459,1.2,1.096,1.495,1.801c-0.389-0.271-1.164-0.984-1.218-1.508
	c0.467,0.465,1.471,1.805,1.29,2.551c-0.138-0.115-0.274-0.26-0.387-0.404c-0.02,0.338,0.454,0.791,0.7,1.037
	c-0.329,0.064-0.661-0.312-0.947-0.443c0.421,0.316,0.918,0.645,1.15,1.105c-0.672-0.258-1.235-0.85-1.94-1.023
	c0.326,0.549,0.926,0.898,1.297,1.416c-0.304-0.016-0.562-0.24-0.823-0.354c0.176,0.297,0.386,0.584,0.585,0.867
	c-0.583-0.121-1.244-0.654-1.841-0.562c0.16,0.283,0.384,0.539,0.643,0.732c-0.288-0.113-0.561-0.27-0.854-0.367
	c0.17,0.389,0.416,0.988,0.796,1.215c-0.347-0.152-0.749-0.355-1.135-0.453c0.044,0.275,0.267,0.508,0.423,0.734
	c-0.197-0.104-0.405-0.213-0.621-0.277c0.05,0.217,0.213,0.396,0.272,0.607c-0.446-0.049-0.82-0.398-1.235-0.438
	c0.094,0.146,0.213,0.281,0.35,0.393c-0.311-0.17-0.639-0.264-0.904-0.502"/>
<path fill="none" d="M151.177,440.994c0,0.021,0,0.049,0,0.074"/>
</svg>
