<?xml version="1.0" encoding="UTF-8" standalone="no"?>
<svg width="485px" height="136px" viewBox="0 0 485 136" version="1.1" xmlns="http://www.w3.org/2000/svg" xmlns:xlink="http://www.w3.org/1999/xlink" xmlns:sketch="http://www.bohemiancoding.com/sketch/ns">
    <title>flightfox-logo</title>
    <description>Created with Sketch (http://www.bohemiancoding.com/sketch)</description>
    <defs></defs>
    <g id="Page-1" stroke="none" stroke-width="1" fill="none" fill-rule="evenodd" sketch:type="MSPage">
        <g id="logo" sketch:type="MSLayerGroup">
            <g id="Page-1" sketch:type="MSShapeGroup">
                <g id="logo">
                    <path d="M0.0999755859,28.8100061 L0.0999755859,104.499006 L17.9349756,104.499006 L17.9349756,48.8190061 L32.2899756,48.8190061 L32.2899756,32.7250061 L19.6749756,32.6810183 C19.6749756,32.6810183 18.9499756,18.0800061 32.2899756,18.0800061 L32.2899756,0.100006104 C5.89897559,0.100006104 0.0999755859,20.4000061 0.0999755859,28.8100061 L0.0999755859,28.8100061 Z" id="Shape" fill="#888888"></path>
                    <rect id="Rectangle" fill="#888888" x="41.0999756" y="0.100006104" width="17.689" height="104.399"></rect>
                    <rect id="Rectangle" fill="#888888" x="68.0999756" y="7.6000061" width="17.69" height="17.11"></rect>
                    <rect id="Rectangle" fill="#888888" x="68.0999756" y="32.1000061" width="17.69" height="71.774"></rect>
                    <path d="M206.006,32.8880061 L206.006,32.8690061 C205.887,32.8690061 205.775,32.8790061 205.657,32.8800061 C205.48,32.8790061 205.315,32.8690061 205.136,32.8690061 L205.136,32.8970061 C199.709,33.0400061 195.093,34.4780061 191.216,36.6100061 L191.216,0.100006104 L173.527,0.100006104 L173.527,104.499006 L173.817,104.499006 L191.217,104.499006 L191.217,64.1890061 C191.217,52.2990061 203.113,52.3990061 205.545,52.3110061 C207.691,52.3990061 218.187,53.3800061 218.187,64.1890061 L218.187,104.499006 L235.587,104.499006 L235.587,55.7790061 C235.586,55.7800061 235.646,32.8880061 206.006,32.8880061 L206.006,32.8880061 L206.006,32.8880061 Z" id="Shape" fill="#888888"></path>
                    <path d="M267.493,48.693 L282.712,48.693 L282.712,32.744 L267.493,32.744 L267.493,14.039 L250.086,14.039 L250.086,32.744 L241.241,32.744 L241.241,48.693 L250.086,48.693 L250.086,79.099 L250.086,84.139 C250.086,84.139 248.346,104.978 279.364,104.978 L279.364,87.305 C279.364,87.305 267.493,88.69 267.493,79.655 L267.493,79.099 L267.493,48.693 L267.493,48.693 Z" id="Shape" fill="#888888"></path>
                    <path d="M290.687,28.8100061 L290.687,104.499006 L308.522,104.499006 L308.522,48.8190061 L322.876,48.8190061 L322.876,32.7250061 L310.261,32.7250061 C310.261,32.7250061 309.535,18.0800061 322.876,18.0800061 L322.876,0.100006104 C296.485,0.100006104 290.687,20.4000061 290.687,28.8100061 L290.687,28.8100061 Z" id="Shape" fill="#888888"></path>
                    <path d="M358.619,32.626 C338.935,32.626 322.976,48.584 322.976,68.268 C322.976,87.953 338.935,103.911 358.619,103.911 C378.303,103.911 394.26,87.953 394.26,68.268 C394.26,48.584 378.303,32.626 358.619,32.626 L358.619,32.626 L358.619,32.626 Z M358.619,86.736 C348.419,86.736 340.152,78.467 340.152,68.267 C340.152,58.068 348.419,49.799 358.619,49.799 C368.817,49.799 377.086,58.068 377.086,68.267 C377.086,78.467 368.817,86.736 358.619,86.736 L358.619,86.736 L358.619,86.736 Z" id="Shape" fill="#888888"></path>
                    <path d="M433.08,68.21 L422.347,52.397 L409.006,32.744 L386.965,32.744 L411.612,68.21 L386.967,104.519 L407.847,104.519 L422.347,83.656 L436.846,104.519 L457.726,104.519 L433.08,68.21 L433.08,68.21 Z" id="Shape" fill="#888888"></path>
                    <path d="M480.721,15.817 C480.721,15.817 481.989,24.578 473.212,27.478 C466.83,29.585 458.885,28.499 458.885,28.499 L458.883,28.524 C416.462,22.514 435.279,66.192 435.279,66.192 C435.279,66.192 433.934,57.241 442.786,54.531 C449.464,52.487 457.119,53.509 457.119,53.509 L457.121,53.483 C499.536,59.495 480.721,15.817 480.721,15.817 L480.721,15.817 L480.721,15.817 Z" id="Shape" fill="#FF4F00"></path>
                    <path d="M150.928,40.1590061 C150.928,40.1590061 149.106283,39.1264648 146.05599,37.5045571 C141.03199,34.6295571 135.245,33.1000061 129.109,33.1000061 C107.793,33.1000061 94.975,48.5110061 94.975,68.9630061 C94.975,89.4150061 107.793,104.249006 129.109,104.249006 C139.668,104.249006 144.808,99.3690061 144.808,99.3690061 L144.808,102.521006 C144.808,115.341006 135.012,117.500006 126.228,117.500006 C122.256,117.500006 118.647,117.209006 115.091,116.558006 L115.091,135.064006 C118.933,135.667006 122.833,135.936006 126.66,135.936006 C151,135.936006 163.243,123.693006 163.243,99.6420061 L163.243,74.4860061 L163.243,65.7960061 L163.243,34.9700061 L150.928,34.9700061 L150.928,40.1590061 Z M128.188,87.1900061 C118.231,87.1900061 110.16,79.1190061 110.16,69.1620061 C110.16,59.2070061 118.231,51.1350061 128.188,51.1350061 C138.145,51.1350061 146.214,59.2080061 146.214,69.1620061 C146.214,79.1190061 138.144,87.1900061 128.188,87.1900061 L128.188,87.1900061 L128.188,87.1900061 Z" id="Shape" fill="#888888"></path>
                </g>
            </g>
        </g>
    </g>
</svg>